<svg id="visual" viewBox="0 0 900 600" width="900" height="600" xmlns="http://www.w3.org/2000/svg" xmlns:xlink="http://www.w3.org/1999/xlink" version="1.1"><path d="M809 600L809 600L809 554L872 554L872 508L863 508L863 462L854 462L854 415L881 415L881 369L881 369L881 323L845 323L845 277L809 277L809 231L863 231L863 185L872 185L872 138L827 138L827 92L827 92L827 46L836 46L836 0L900 0L900 46L900 46L900 92L900 92L900 138L900 138L900 185L900 185L900 231L900 231L900 277L900 277L900 323L900 323L900 369L900 369L900 415L900 415L900 462L900 462L900 508L900 508L900 554L900 554L900 600L900 600Z" fill="#10496d"></path><path d="M620 600L629 600L629 554L719 554L719 508L701 508L701 462L674 462L674 415L782 415L782 369L800 369L800 323L791 323L791 277L746 277L746 231L782 231L782 185L701 185L701 138L701 138L701 92L710 92L710 46L791 46L791 0L837 0L837 46L828 46L828 92L828 92L828 138L873 138L873 185L864 185L864 231L810 231L810 277L846 277L846 323L882 323L882 369L882 369L882 415L855 415L855 462L864 462L864 508L873 508L873 554L810 554L810 600L810 600Z" fill="#115179"></path><path d="M602 600L503 600L503 554L629 554L629 508L638 508L638 462L647 462L647 415L692 415L692 369L692 369L692 323L701 323L701 277L656 277L656 231L665 231L665 185L584 185L584 138L566 138L566 92L638 92L638 46L755 46L755 0L792 0L792 46L711 46L711 92L702 92L702 138L702 138L702 185L783 185L783 231L747 231L747 277L792 277L792 323L801 323L801 369L783 369L783 415L675 415L675 462L702 462L702 508L720 508L720 554L630 554L630 600L621 600Z" fill="#115985"></path><path d="M467 600L449 600L449 554L593 554L593 508L521 508L521 462L566 462L566 415L566 415L566 369L656 369L656 323L665 323L665 277L566 277L566 231L521 231L521 185L548 185L548 138L485 138L485 92L584 92L584 46L728 46L728 0L756 0L756 46L639 46L639 92L567 92L567 138L585 138L585 185L666 185L666 231L657 231L657 277L702 277L702 323L693 323L693 369L693 369L693 415L648 415L648 462L639 462L639 508L630 508L630 554L504 554L504 600L603 600Z" fill="#126192"></path><path d="M413 600L350 600L350 554L332 554L332 508L251 508L251 462L341 462L341 415L458 415L458 369L278 369L278 323L593 323L593 277L503 277L503 231L332 231L332 185L431 185L431 138L278 138L278 92L377 92L377 46L557 46L557 0L729 0L729 46L585 46L585 92L486 92L486 138L549 138L549 185L522 185L522 231L567 231L567 277L666 277L666 323L657 323L657 369L567 369L567 415L567 415L567 462L522 462L522 508L594 508L594 554L450 554L450 600L468 600Z" fill="#13699e"></path><path d="M404 600L269 600L269 554L278 554L278 508L233 508L233 462L287 462L287 415L395 415L395 369L260 369L260 323L539 323L539 277L467 277L467 231L251 231L251 185L422 185L422 138L269 138L269 92L332 92L332 46L548 46L548 0L558 0L558 46L378 46L378 92L279 92L279 138L432 138L432 185L333 185L333 231L504 231L504 277L594 277L594 323L279 323L279 369L459 369L459 415L342 415L342 462L252 462L252 508L333 508L333 554L351 554L351 600L414 600Z" fill="#1471ab"></path><path d="M323 600L242 600L242 554L206 554L206 508L170 508L170 462L251 462L251 415L368 415L368 369L233 369L233 323L449 323L449 277L431 277L431 231L233 231L233 185L350 185L350 138L242 138L242 92L296 92L296 46L494 46L494 0L549 0L549 46L333 46L333 92L270 92L270 138L423 138L423 185L252 185L252 231L468 231L468 277L540 277L540 323L261 323L261 369L396 369L396 415L288 415L288 462L234 462L234 508L279 508L279 554L270 554L270 600L405 600Z" fill="#1679b8"></path><path d="M314 600L215 600L215 554L152 554L152 508L116 508L116 462L197 462L197 415L341 415L341 369L206 369L206 323L413 323L413 277L413 277L413 231L206 231L206 185L287 185L287 138L233 138L233 92L242 92L242 46L485 46L485 0L495 0L495 46L297 46L297 92L243 92L243 138L351 138L351 185L234 185L234 231L432 231L432 277L450 277L450 323L234 323L234 369L369 369L369 415L252 415L252 462L171 462L171 508L207 508L207 554L243 554L243 600L324 600Z" fill="#1882c5"></path><path d="M71 600L35 600L35 554L53 554L53 508L44 508L44 462L89 462L89 415L98 415L98 369L26 369L26 323L53 323L53 277L71 277L71 231L26 231L26 185L116 185L116 138L53 138L53 92L62 92L62 46L89 46L89 0L486 0L486 46L243 46L243 92L234 92L234 138L288 138L288 185L207 185L207 231L414 231L414 277L414 277L414 323L207 323L207 369L342 369L342 415L198 415L198 462L117 462L117 508L153 508L153 554L216 554L216 600L315 600Z" fill="#1a8bd3"></path><path d="M35 600L26 600L26 554L35 554L35 508L8 508L8 462L53 462L53 415L80 415L80 369L17 369L17 323L35 323L35 277L35 277L35 231L8 231L8 185L80 185L80 138L17 138L17 92L17 92L17 46L53 46L53 0L90 0L90 46L63 46L63 92L54 92L54 138L117 138L117 185L27 185L27 231L72 231L72 277L54 277L54 323L27 323L27 369L99 369L99 415L90 415L90 462L45 462L45 508L54 508L54 554L36 554L36 600L72 600Z" fill="#1d93e0"></path><path d="M0 600L0 600L0 554L0 554L0 508L0 508L0 462L0 462L0 415L0 415L0 369L0 369L0 323L0 323L0 277L0 277L0 231L0 231L0 185L0 185L0 138L0 138L0 92L0 92L0 46L0 46L0 0L54 0L54 46L18 46L18 92L18 92L18 138L81 138L81 185L9 185L9 231L36 231L36 277L36 277L36 323L18 323L18 369L81 369L81 415L54 415L54 462L9 462L9 508L36 508L36 554L27 554L27 600L36 600Z" fill="#209cee"></path></svg>