<svg xmlns="http://www.w3.org/2000/svg" viewBox="0 0 500 500"><g id="freepik--background-simple--inject-2"><path d="M177.14,425.7c104.16,21.78,209.14-63.36,258-146.18,32.46-55,45.93-120.17,28.06-173.84C450.09,66.35,416.4,27.77,365.63,25c-56.58-3.13-102.84,51.67-161,49.21S77.59,94.17,43.76,137,2.15,259,29.69,321.22a177.51,177.51,0,0,0,80.81,85.32c20.28,10.49,42.3,13.85,65.37,18.89Z" style="fill:#407BFF"></path><path d="M177.14,425.7c104.16,21.78,209.14-63.36,258-146.18,32.46-55,45.93-120.17,28.06-173.84C450.09,66.35,416.4,27.77,365.63,25c-56.58-3.13-102.84,51.67-161,49.21S77.59,94.17,43.76,137,2.15,259,29.69,321.22a177.51,177.51,0,0,0,80.81,85.32c20.28,10.49,42.3,13.85,65.37,18.89Z" style="fill:#fff;opacity:0.8"></path></g><g id="freepik--Gates--inject-2"><path d="M47.15,215.62c-1.61-.37-3.21-.74-4-1.78-1.52-2,.3-6.41-1.08-8.55S36,203,34.74,200.77s1.21-6.3.15-8.63-5.72-3.13-6.62-5.52,2.1-6.06,1.38-8.51-5.21-3.92-5.75-6.42,2.94-5.69,2.58-8.22-4.6-4.62-4.78-7.18,3.73-5.21,3.73-7.77-3.91-5.26-3.73-7.78,4.43-4.67,4.78-7.17-3.12-5.75-2.58-8.23,5-4,5.75-6.42-2.27-6.13-1.38-8.51,5.56-3.21,6.62-5.52-1.37-6.39-.15-8.62,6-2.39,7.34-4.52-.44-6.52,1.08-8.56,6.24-1.51,7.91-3.43.48-6.52,2.28-8.32,6.39-.61,8.32-2.28,1.39-6.38,3.43-7.91,6.41.3,8.55-1.08,2.29-6.11,4.53-7.34S84.48,54,86.8,53s3.13-5.73,5.52-6.62,6.06,2.1,8.51,1.38,3.92-5.21,6.42-5.76,5.69,3,8.23,2.59,4.61-4.6,7.17-4.78,5.21,3.73,7.78,3.73,5.25-3.91,7.77-3.73,4.67,4.42,7.18,4.78,5.75-3.12,8.22-2.59,4,5.05,6.42,5.76,6.13-2.27,8.51-1.38,3.21,5.56,5.52,6.62,6.39-1.37,8.62-.15,2.39,6,4.53,7.34,6.52-.45,8.55,1.08,1.51,6.24,3.44,7.91,6.51.48,8.31,2.28.61,6.39,2.28,8.31,6.38,1.4,7.91,3.44-.3,6.41,1.08,8.55,6.12,2.29,7.34,4.53-1.21,6.29-.15,8.62,5.73,3.13,6.62,5.52-2.1,6.06-1.38,8.51,5.22,3.92,5.76,6.42-3,5.69-2.59,8.23,4.6,4.61,4.78,7.17-3.72,5.21-3.72,7.78,3.9,5.25,3.72,7.77-4.42,4.67-4.78,7.18,3.12,5.74,2.59,8.22-5.05,4-5.76,6.42,2.27,6.13,1.38,8.51-5.56,3.21-6.62,5.52,1.37,6.39.15,8.62-6,2.39-7.34,4.53.45,6.51-1.08,8.55c-.76,1-2.32,1.4-3.9,1.76" style="fill:none;stroke:#999;stroke-linecap:round;stroke-linejoin:round"></path><path d="M216.14,160.84c-.3,2.09,2.58,4.74,2.14,6.79s-4.16,3.28-4.75,5.29,1.87,5.05,1.14,7-4.59,2.65-5.46,4.55,1.13,5.27.12,7.11-4.92,2-6.05,3.73.37,5.37-.89,7c0,0,17,15,17,31.2V443.09H41.6V233.58c0-15.64,15.87-30.2,16.91-31.15l0,0c-1.26-1.68.24-5.29-.89-7.06s-5-1.88-6.06-3.73,1-5.19.13-7.11-4.73-2.58-5.46-4.55,1.73-5,1.14-7-4.3-3.23-4.75-5.29,2.43-4.7,2.13-6.79-3.79-3.8-3.94-5.91,3.07-4.3,3.07-6.41-3.22-4.34-3.07-6.42,3.65-3.85,3.94-5.91-2.57-4.74-2.13-6.78,4.16-3.29,4.75-5.3-1.87-5-1.14-7,4.58-2.66,5.45-4.56-1.12-5.27-.12-7.11,4.92-2,6-3.73-.36-5.37.9-7S63.61,93.4,65,91.82s.39-5.38,1.88-6.86,5.27-.51,6.85-1.88,1.16-5.26,2.84-6.52,5.28.24,7-.89,1.88-5,3.73-6.06,5.19,1,7.11.12S97,65,99,64.28s5,1.73,7,1.14,3.23-4.31,5.3-4.75S116,63.1,118.1,62.8,121.91,59,124,58.86s4.3,3.07,6.42,3.07,4.33-3.22,6.41-3.07,3.85,3.65,5.91,3.94,4.75-2.57,6.79-2.13,3.28,4.16,5.29,4.75,5.06-1.88,7-1.14,2.65,4.58,4.55,5.45,5.27-1.12,7.11-.12,2,4.92,3.73,6,5.38-.36,7,.89,1.25,5.15,2.84,6.53,5.37.39,6.85,1.88.51,5.27,1.89,6.85,5.26,1.15,6.52,2.84-.25,5.28.89,7,5,1.88,6.05,3.73-1,5.19-.12,7.11,4.72,2.58,5.46,4.55-1.74,5-1.14,7,4.3,3.23,4.74,5.3-2.43,4.69-2.13,6.78,3.8,3.8,4,5.91-3.08,4.3-3.08,6.42,3.22,4.33,3.08,6.41S216.44,158.78,216.14,160.84Z" style="fill:none;stroke:#999;stroke-linecap:round;stroke-linejoin:round"></path><line x1="130.43" y1="61.93" x2="130.43" y2="442.81" style="fill:none;stroke:#999;stroke-linecap:round;stroke-linejoin:round"></line><path d="M135.69,205.89H124.07a3.45,3.45,0,0,1-2.92-1.61c-2.55-4-8.79-14.4-7.9-18.76,1.19-5.85,17.39-16.39,17.39-16.39s14.83,10.38,15.9,15.89c.85,4.46-5.38,15.14-7.91,19.24A3.48,3.48,0,0,1,135.69,205.89Z" style="fill:none;stroke:#999;stroke-linecap:round;stroke-linejoin:round"></path><path d="M131.71,204l-10.06,5.81a3.43,3.43,0,0,1-3.33.07c-4.21-2.2-14.81-8.08-16.22-12.3-1.9-5.66,6.86-22.89,6.86-22.89s18,1.57,21.72,5.82c3,3.43,2.91,15.8,2.76,20.61A3.42,3.42,0,0,1,131.71,204Z" style="fill:none;stroke:#999;stroke-linecap:round;stroke-linejoin:round"></path><path d="M127.32,204.32l-5.81,10.06a3.45,3.45,0,0,1-2.85,1.73c-4.74.2-16.87.4-20.2-2.55C94,209.61,93,190.31,93,190.31s16.4-7.66,21.71-5.82C119,186,125.09,196.72,127.37,201A3.46,3.46,0,0,1,127.32,204.32Z" style="fill:none;stroke:#999;stroke-linecap:round;stroke-linejoin:round"></path><path d="M123.68,206.8v11.62a3.45,3.45,0,0,1-1.61,2.92c-4,2.55-14.4,8.79-18.76,7.9-5.85-1.19-16.39-17.39-16.39-17.39S97.3,197,102.82,196c4.45-.85,15.13,5.38,19.23,7.91A3.48,3.48,0,0,1,123.68,206.8Z" style="fill:none;stroke:#999;stroke-linecap:round;stroke-linejoin:round"></path><path d="M121.77,210.78l5.81,10.06a3.43,3.43,0,0,1,.07,3.33c-2.2,4.21-8.08,14.81-12.3,16.22-5.66,1.9-22.89-6.86-22.89-6.86s1.57-18,5.82-21.72c3.43-3,15.8-2.91,20.61-2.76A3.42,3.42,0,0,1,121.77,210.78Z" style="fill:none;stroke:#999;stroke-linecap:round;stroke-linejoin:round"></path><path d="M122.11,215.17,132.17,221a3.45,3.45,0,0,1,1.73,2.85c.2,4.74.4,16.87-2.55,20.2-3.95,4.48-23.25,5.5-23.25,5.5s-7.66-16.4-5.82-21.71c1.48-4.29,12.23-10.42,16.46-12.7A3.46,3.46,0,0,1,122.11,215.17Z" style="fill:none;stroke:#999;stroke-linecap:round;stroke-linejoin:round"></path><path d="M124.59,218.81h11.62a3.48,3.48,0,0,1,2.93,1.61c2.54,4,8.78,14.4,7.89,18.76-1.19,5.85-17.39,16.39-17.39,16.39s-14.83-10.38-15.89-15.89c-.86-4.46,5.38-15.14,7.9-19.24A3.48,3.48,0,0,1,124.59,218.81Z" style="fill:none;stroke:#999;stroke-linecap:round;stroke-linejoin:round"></path><path d="M128.57,220.72l10.06-5.81a3.43,3.43,0,0,1,3.33-.07c4.21,2.2,14.81,8.08,16.22,12.3,1.9,5.66-6.86,22.89-6.86,22.89s-18-1.57-21.72-5.82c-3-3.43-2.91-15.8-2.76-20.61A3.42,3.42,0,0,1,128.57,220.72Z" style="fill:none;stroke:#999;stroke-linecap:round;stroke-linejoin:round"></path><path d="M133,220.38l5.81-10.06a3.46,3.46,0,0,1,2.86-1.73c4.73-.2,16.86-.4,20.19,2.55,4.48,4,5.5,23.25,5.5,23.25s-16.4,7.66-21.71,5.82c-4.29-1.48-10.42-12.23-12.7-16.46A3.46,3.46,0,0,1,133,220.38Z" style="fill:none;stroke:#999;stroke-linecap:round;stroke-linejoin:round"></path><path d="M136.6,217.9V206.28a3.45,3.45,0,0,1,1.61-2.92c4-2.55,14.4-8.79,18.76-7.9,5.85,1.19,16.39,17.39,16.39,17.39S163,227.68,157.47,228.74c-4.46.86-15.14-5.38-19.24-7.9A3.48,3.48,0,0,1,136.6,217.9Z" style="fill:none;stroke:#999;stroke-linecap:round;stroke-linejoin:round"></path><path d="M138.51,213.92l-5.81-10.06a3.43,3.43,0,0,1-.07-3.33c2.2-4.21,8.08-14.81,12.3-16.22,5.66-1.9,22.89,6.86,22.89,6.86s-1.57,18-5.82,21.72c-3.43,3-15.8,2.91-20.61,2.76A3.44,3.44,0,0,1,138.51,213.92Z" style="fill:none;stroke:#999;stroke-linecap:round;stroke-linejoin:round"></path><path d="M138.17,209.53l-10.06-5.81a3.48,3.48,0,0,1-1.73-2.85c-.2-4.74-.4-16.87,2.55-20.2,3.95-4.48,23.25-5.5,23.25-5.5s7.66,16.4,5.82,21.71c-1.48,4.29-12.23,10.42-16.46,12.7A3.46,3.46,0,0,1,138.17,209.53Z" style="fill:none;stroke:#999;stroke-linecap:round;stroke-linejoin:round"></path><path d="M97,104.87c0,4.8-2.18,20.43-4.86,20.43s-4.85-15.63-4.85-20.43,2.17-8.69,4.85-8.69S97,100.07,97,104.87Z" style="fill:none;stroke:#999;stroke-linecap:round;stroke-linejoin:round"></path><path d="M82.68,106.53c3.09,3.68,11.47,17,9.41,18.77s-13.76-8.85-16.84-12.53-3.93-8-1.87-9.78S79.6,102.86,82.68,106.53Z" style="fill:none;stroke:#999;stroke-linecap:round;stroke-linejoin:round"></path><path d="M72.82,117c4.73.84,19.74,5.69,19.27,8.33s-16.23,2.06-21,1.23-8.18-3.65-7.71-6.29S68.09,116.14,72.82,117Z" style="fill:none;stroke:#999;stroke-linecap:round;stroke-linejoin:round"></path><path d="M72,131.31c4.15-2.4,18.77-8.33,20.11-6s-11.1,12-15.26,14.41-8.61,2.47-10,.15S67.82,133.71,72,131.31Z" style="fill:none;stroke:#999;stroke-linecap:round;stroke-linejoin:round"></path><path d="M80.55,142.83c1.64-4.51,9-18.45,11.54-17.53s-.78,16.34-2.42,20.85-5,7.43-7.53,6.51S78.91,147.34,80.55,142.83Z" style="fill:none;stroke:#999;stroke-linecap:round;stroke-linejoin:round"></path><path d="M94.52,146.15c-1.64-4.51-5-19.93-2.43-20.85s9.91,13,11.55,17.53.93,8.91-1.59,9.83S96.16,150.66,94.52,146.15Z" style="fill:none;stroke:#999;stroke-linecap:round;stroke-linejoin:round"></path><path d="M107.36,139.71c-4.16-2.4-16.61-12.09-15.27-14.41s16,3.61,20.12,6,6.44,6.23,5.1,8.55S111.51,142.11,107.36,139.71Z" style="fill:none;stroke:#999;stroke-linecap:round;stroke-linejoin:round"></path><path d="M113.05,126.53c-4.72.83-20.49,1.41-21-1.23s14.55-7.49,19.28-8.33,8.93.63,9.4,3.27S117.78,125.7,113.05,126.53Z" style="fill:none;stroke:#999;stroke-linecap:round;stroke-linejoin:round"></path><path d="M108.94,112.77c-3.08,3.68-14.79,14.25-16.85,12.53s6.33-15.09,9.42-18.77,7.25-5.26,9.3-3.54S112,109.09,108.94,112.77Z" style="fill:none;stroke:#999;stroke-linecap:round;stroke-linejoin:round"></path><path d="M175.61,104.87c0,4.8-2.17,20.43-4.85,20.43s-4.85-15.63-4.85-20.43,2.17-8.69,4.85-8.69S175.61,100.07,175.61,104.87Z" style="fill:none;stroke:#999;stroke-linecap:round;stroke-linejoin:round"></path><path d="M161.35,106.53c3.08,3.68,11.46,17,9.41,18.77s-13.76-8.85-16.85-12.53-3.92-8-1.87-9.78S158.26,102.86,161.35,106.53Z" style="fill:none;stroke:#999;stroke-linecap:round;stroke-linejoin:round"></path><path d="M151.49,117c4.72.84,19.74,5.69,19.27,8.33s-16.23,2.06-21,1.23-8.18-3.65-7.71-6.29S146.76,116.14,151.49,117Z" style="fill:none;stroke:#999;stroke-linecap:round;stroke-linejoin:round"></path><path d="M150.64,131.31c4.16-2.4,18.78-8.33,20.12-6s-11.11,12-15.26,14.41-8.62,2.47-10,.15S146.49,133.71,150.64,131.31Z" style="fill:none;stroke:#999;stroke-linecap:round;stroke-linejoin:round"></path><path d="M159.21,142.83c1.65-4.51,9-18.45,11.55-17.53s-.78,16.34-2.43,20.85-5,7.43-7.53,6.51S157.57,147.34,159.21,142.83Z" style="fill:none;stroke:#999;stroke-linecap:round;stroke-linejoin:round"></path><path d="M173.19,146.15c-1.65-4.51-4.95-19.93-2.43-20.85s9.9,13,11.55,17.53.93,8.91-1.59,9.83S174.83,150.66,173.19,146.15Z" style="fill:none;stroke:#999;stroke-linecap:round;stroke-linejoin:round"></path><path d="M186,139.71c-4.15-2.4-16.6-12.09-15.26-14.41s16,3.61,20.12,6,6.44,6.23,5.1,8.55S190.18,142.11,186,139.71Z" style="fill:none;stroke:#999;stroke-linecap:round;stroke-linejoin:round"></path><path d="M191.72,126.53c-4.73.83-20.49,1.41-21-1.23S185.31,117.81,190,117s8.94.63,9.4,3.27S196.45,125.7,191.72,126.53Z" style="fill:none;stroke:#999;stroke-linecap:round;stroke-linejoin:round"></path><path d="M187.61,112.77c-3.09,3.68-14.8,14.25-16.85,12.53s6.33-15.09,9.41-18.77,7.25-5.26,9.31-3.54S190.69,109.09,187.61,112.77Z" style="fill:none;stroke:#999;stroke-linecap:round;stroke-linejoin:round"></path><path d="M97,356.21c0,4.79-2.18,20.42-4.86,20.42S87.24,361,87.24,356.21s2.17-8.69,4.85-8.69S97,351.41,97,356.21Z" style="fill:none;stroke:#999;stroke-linecap:round;stroke-linejoin:round"></path><path d="M82.68,357.86c3.09,3.68,11.47,17.05,9.41,18.77s-13.76-8.85-16.84-12.53-3.93-8.05-1.87-9.77S79.6,354.19,82.68,357.86Z" style="fill:none;stroke:#999;stroke-linecap:round;stroke-linejoin:round"></path><path d="M72.82,368.31c4.73.83,19.74,5.68,19.27,8.32s-16.23,2.07-21,1.23-8.18-3.64-7.71-6.28S68.09,367.47,72.82,368.31Z" style="fill:none;stroke:#999;stroke-linecap:round;stroke-linejoin:round"></path><path d="M72,382.64c4.15-2.4,18.77-8.33,20.11-6s-11.1,12-15.26,14.42-8.61,2.46-10,.14S67.82,385,72,382.64Z" style="fill:none;stroke:#999;stroke-linecap:round;stroke-linejoin:round"></path><path d="M80.55,394.17c1.64-4.51,9-18.45,11.54-17.54s-.78,16.35-2.42,20.86-5,7.42-7.53,6.5S78.91,398.68,80.55,394.17Z" style="fill:none;stroke:#999;stroke-linecap:round;stroke-linejoin:round"></path><path d="M94.52,397.49c-1.64-4.51-5-19.94-2.43-20.86s9.91,13,11.55,17.54.93,8.91-1.59,9.82S96.16,402,94.52,397.49Z" style="fill:none;stroke:#999;stroke-linecap:round;stroke-linejoin:round"></path><path d="M107.36,391.05c-4.16-2.4-16.61-12.1-15.27-14.42s16,3.61,20.12,6,6.44,6.23,5.1,8.55S111.51,393.45,107.36,391.05Z" style="fill:none;stroke:#999;stroke-linecap:round;stroke-linejoin:round"></path><path d="M113.05,377.86c-4.72.84-20.49,1.41-21-1.23s14.55-7.49,19.28-8.32,8.93.63,9.4,3.27S117.78,377,113.05,377.86Z" style="fill:none;stroke:#999;stroke-linecap:round;stroke-linejoin:round"></path><path d="M108.94,364.1c-3.08,3.68-14.79,14.25-16.85,12.53s6.33-15.09,9.42-18.77,7.25-5.26,9.3-3.53S112,360.43,108.94,364.1Z" style="fill:none;stroke:#999;stroke-linecap:round;stroke-linejoin:round"></path><path d="M175.61,356.21c0,4.79-2.17,20.42-4.85,20.42s-4.85-15.63-4.85-20.42,2.17-8.69,4.85-8.69S175.61,351.41,175.61,356.21Z" style="fill:none;stroke:#999;stroke-linecap:round;stroke-linejoin:round"></path><path d="M161.35,357.86c3.08,3.68,11.46,17.05,9.41,18.77S157,367.78,153.91,364.1s-3.92-8.05-1.87-9.77S158.26,354.19,161.35,357.86Z" style="fill:none;stroke:#999;stroke-linecap:round;stroke-linejoin:round"></path><path d="M151.49,368.31c4.72.83,19.74,5.68,19.27,8.32s-16.23,2.07-21,1.23-8.18-3.64-7.71-6.28S146.76,367.47,151.49,368.31Z" style="fill:none;stroke:#999;stroke-linecap:round;stroke-linejoin:round"></path><path d="M150.64,382.64c4.16-2.4,18.78-8.33,20.12-6s-11.11,12-15.26,14.42-8.62,2.46-10,.14S146.49,385,150.64,382.64Z" style="fill:none;stroke:#999;stroke-linecap:round;stroke-linejoin:round"></path><path d="M159.21,394.17c1.65-4.51,9-18.45,11.55-17.54S170,393,168.33,397.49s-5,7.42-7.53,6.5S157.57,398.68,159.21,394.17Z" style="fill:none;stroke:#999;stroke-linecap:round;stroke-linejoin:round"></path><path d="M173.19,397.49c-1.65-4.51-4.95-19.94-2.43-20.86s9.9,13,11.55,17.54.93,8.91-1.59,9.82S174.83,402,173.19,397.49Z" style="fill:none;stroke:#999;stroke-linecap:round;stroke-linejoin:round"></path><path d="M186,391.05c-4.15-2.4-16.6-12.1-15.26-14.42s16,3.61,20.12,6,6.44,6.23,5.1,8.55S190.18,393.45,186,391.05Z" style="fill:none;stroke:#999;stroke-linecap:round;stroke-linejoin:round"></path><path d="M191.72,377.86c-4.73.84-20.49,1.41-21-1.23s14.55-7.49,19.27-8.32,8.94.63,9.4,3.27S196.45,377,191.72,377.86Z" style="fill:none;stroke:#999;stroke-linecap:round;stroke-linejoin:round"></path><path d="M187.61,364.1c-3.09,3.68-14.8,14.25-16.85,12.53s6.33-15.09,9.41-18.77,7.25-5.26,9.31-3.53S190.69,360.43,187.61,364.1Z" style="fill:none;stroke:#999;stroke-linecap:round;stroke-linejoin:round"></path><path d="M290.36,215.62c-1.61-.37-3.21-.74-4-1.78-1.52-2,.3-6.41-1.08-8.55s-6.11-2.29-7.34-4.52,1.21-6.3.15-8.63-5.72-3.13-6.62-5.52,2.1-6.06,1.38-8.51-5.21-3.92-5.75-6.42,2.94-5.69,2.58-8.22-4.6-4.62-4.78-7.18,3.73-5.21,3.73-7.77-3.91-5.26-3.73-7.78,4.43-4.67,4.78-7.17-3.12-5.75-2.58-8.23,5-4,5.75-6.42-2.26-6.13-1.38-8.51,5.56-3.21,6.62-5.52-1.37-6.39-.15-8.62,6-2.39,7.34-4.52-.44-6.52,1.08-8.56,6.24-1.51,7.91-3.43.48-6.52,2.28-8.32,6.39-.61,8.32-2.28,1.39-6.38,3.43-7.91,6.41.3,8.55-1.08,2.29-6.11,4.53-7.34S327.69,54,330,53s3.13-5.73,5.52-6.62,6.06,2.1,8.51,1.38S348,42.53,350.46,42s5.69,3,8.23,2.59,4.61-4.6,7.17-4.78,5.21,3.73,7.78,3.73,5.25-3.91,7.77-3.73,4.67,4.42,7.18,4.78,5.75-3.12,8.22-2.59,4,5.05,6.42,5.76,6.13-2.27,8.51-1.38S415,51.92,417.26,53s6.39-1.37,8.62-.15,2.39,6,4.53,7.34,6.52-.45,8.55,1.08,1.51,6.24,3.44,7.91,6.51.48,8.31,2.28.61,6.39,2.28,8.31,6.38,1.4,7.91,3.44-.3,6.41,1.08,8.55,6.12,2.29,7.34,4.53-1.21,6.29-.15,8.62,5.73,3.13,6.62,5.52-2.1,6.06-1.38,8.51,5.22,3.92,5.76,6.42-2.95,5.69-2.59,8.23,4.6,4.61,4.78,7.17-3.72,5.21-3.72,7.78,3.9,5.25,3.72,7.77-4.42,4.67-4.78,7.18,3.12,5.74,2.59,8.22-5.05,4-5.76,6.42,2.27,6.13,1.38,8.51-5.56,3.21-6.62,5.52,1.37,6.39.15,8.62-6,2.39-7.34,4.53.45,6.51-1.08,8.55c-.76,1-2.32,1.4-3.9,1.76" style="fill:none;stroke:#999;stroke-linecap:round;stroke-linejoin:round"></path><path d="M459.35,160.84c-.3,2.09,2.58,4.74,2.14,6.79s-4.16,3.28-4.75,5.29,1.87,5.05,1.14,7-4.59,2.65-5.46,4.55,1.13,5.27.12,7.11-4.92,2-6.05,3.73.37,5.37-.89,7c0,0,17,15,17,31.2V443.09H284.81V233.58c0-15.64,15.87-30.2,16.91-31.15l0,0c-1.26-1.68.24-5.29-.89-7.06s-5.05-1.88-6.06-3.73,1-5.19.13-7.11-4.73-2.58-5.46-4.55,1.73-5,1.14-7-4.3-3.23-4.75-5.29,2.43-4.7,2.13-6.79-3.79-3.8-3.94-5.91,3.07-4.3,3.07-6.41-3.22-4.34-3.07-6.42,3.65-3.85,3.94-5.91-2.57-4.74-2.13-6.78,4.16-3.29,4.75-5.3-1.87-5-1.14-7,4.58-2.66,5.46-4.56-1.13-5.27-.13-7.11,4.92-2,6.06-3.73-.37-5.37.89-7,5.14-1.25,6.52-2.83.39-5.38,1.88-6.86,5.27-.51,6.85-1.88,1.16-5.26,2.84-6.52,5.28.24,7.05-.89,1.88-5,3.73-6.06,5.19,1,7.11.12,2.58-4.72,4.56-5.45,5,1.73,7,1.14,3.23-4.31,5.3-4.75,4.69,2.43,6.78,2.13,3.81-3.79,5.92-3.94,4.29,3.07,6.41,3.07,4.33-3.22,6.41-3.07,3.85,3.65,5.91,3.94,4.75-2.57,6.79-2.13S396,64.83,398,65.42s5.06-1.88,7-1.14,2.65,4.58,4.55,5.45,5.27-1.12,7.11-.12,2,4.92,3.73,6,5.38-.36,7.05.89,1.25,5.15,2.84,6.53,5.37.39,6.85,1.88.51,5.27,1.89,6.85,5.26,1.15,6.52,2.84-.25,5.28.89,7,5,1.88,6.05,3.73-1,5.19-.12,7.11,4.72,2.58,5.46,4.55-1.74,5-1.14,7,4.3,3.23,4.75,5.3-2.44,4.69-2.14,6.78,3.8,3.8,3.95,5.91-3.08,4.3-3.08,6.42,3.22,4.33,3.08,6.41S459.65,158.78,459.35,160.84Z" style="fill:none;stroke:#999;stroke-linecap:round;stroke-linejoin:round"></path><line x1="373.64" y1="61.93" x2="373.64" y2="442.81" style="fill:none;stroke:#999;stroke-linecap:round;stroke-linejoin:round"></line><path d="M378.9,205.89H367.28a3.45,3.45,0,0,1-2.92-1.61c-2.55-4-8.79-14.4-7.9-18.76,1.19-5.85,17.39-16.39,17.39-16.39s14.83,10.38,15.9,15.89c.85,4.46-5.38,15.14-7.91,19.24A3.48,3.48,0,0,1,378.9,205.89Z" style="fill:none;stroke:#999;stroke-linecap:round;stroke-linejoin:round"></path><path d="M374.92,204l-10.06,5.81a3.43,3.43,0,0,1-3.33.07c-4.21-2.2-14.81-8.08-16.22-12.3-1.9-5.66,6.86-22.89,6.86-22.89s18,1.57,21.72,5.82c3,3.43,2.91,15.8,2.76,20.61A3.42,3.42,0,0,1,374.92,204Z" style="fill:none;stroke:#999;stroke-linecap:round;stroke-linejoin:round"></path><path d="M370.53,204.32l-5.81,10.06a3.45,3.45,0,0,1-2.85,1.73c-4.74.2-16.87.4-20.2-2.55-4.47-3.95-5.5-23.25-5.5-23.25s16.4-7.66,21.71-5.82c4.29,1.48,10.42,12.23,12.7,16.46A3.46,3.46,0,0,1,370.53,204.32Z" style="fill:none;stroke:#999;stroke-linecap:round;stroke-linejoin:round"></path><path d="M366.89,206.8v11.62a3.45,3.45,0,0,1-1.61,2.92c-4,2.55-14.4,8.79-18.76,7.9-5.85-1.19-16.39-17.39-16.39-17.39S340.51,197,346,196c4.45-.85,15.13,5.38,19.23,7.91A3.48,3.48,0,0,1,366.89,206.8Z" style="fill:none;stroke:#999;stroke-linecap:round;stroke-linejoin:round"></path><path d="M365,210.78l5.81,10.06a3.43,3.43,0,0,1,.07,3.33c-2.2,4.21-8.08,14.81-12.3,16.22-5.66,1.9-22.89-6.86-22.89-6.86s1.57-18,5.82-21.72c3.43-3,15.8-2.91,20.61-2.76A3.42,3.42,0,0,1,365,210.78Z" style="fill:none;stroke:#999;stroke-linecap:round;stroke-linejoin:round"></path><path d="M365.32,215.17,375.38,221a3.45,3.45,0,0,1,1.73,2.85c.2,4.74.4,16.87-2.54,20.2-4,4.48-23.26,5.5-23.26,5.5s-7.66-16.4-5.82-21.71c1.49-4.29,12.23-10.42,16.46-12.7A3.46,3.46,0,0,1,365.32,215.17Z" style="fill:none;stroke:#999;stroke-linecap:round;stroke-linejoin:round"></path><path d="M367.8,218.81h11.62a3.48,3.48,0,0,1,2.93,1.61c2.54,4,8.78,14.4,7.89,18.76-1.19,5.85-17.39,16.39-17.39,16.39S358,245.19,357,239.68c-.86-4.46,5.38-15.14,7.91-19.24A3.45,3.45,0,0,1,367.8,218.81Z" style="fill:none;stroke:#999;stroke-linecap:round;stroke-linejoin:round"></path><path d="M371.78,220.72l10.06-5.81a3.43,3.43,0,0,1,3.33-.07c4.21,2.2,14.81,8.08,16.22,12.3,1.9,5.66-6.86,22.89-6.86,22.89s-18-1.57-21.72-5.82c-3-3.43-2.91-15.8-2.76-20.61A3.42,3.42,0,0,1,371.78,220.72Z" style="fill:none;stroke:#999;stroke-linecap:round;stroke-linejoin:round"></path><path d="M376.17,220.38,382,210.32a3.46,3.46,0,0,1,2.86-1.73c4.73-.2,16.86-.4,20.19,2.55,4.48,4,5.5,23.25,5.5,23.25s-16.4,7.66-21.71,5.82c-4.29-1.48-10.42-12.23-12.7-16.46A3.46,3.46,0,0,1,376.17,220.38Z" style="fill:none;stroke:#999;stroke-linecap:round;stroke-linejoin:round"></path><path d="M379.81,217.9V206.28a3.45,3.45,0,0,1,1.61-2.92c4-2.55,14.4-8.79,18.76-7.9,5.85,1.19,16.39,17.39,16.39,17.39s-10.37,14.83-15.89,15.89c-4.46.86-15.14-5.38-19.24-7.9A3.48,3.48,0,0,1,379.81,217.9Z" style="fill:none;stroke:#999;stroke-linecap:round;stroke-linejoin:round"></path><path d="M381.72,213.92l-5.81-10.06a3.46,3.46,0,0,1-.07-3.33c2.2-4.21,8.08-14.81,12.3-16.22,5.66-1.9,22.89,6.86,22.89,6.86s-1.57,18-5.82,21.72c-3.43,3-15.8,2.91-20.61,2.76A3.44,3.44,0,0,1,381.72,213.92Z" style="fill:none;stroke:#999;stroke-linecap:round;stroke-linejoin:round"></path><path d="M381.38,209.53l-10.06-5.81a3.48,3.48,0,0,1-1.73-2.85c-.2-4.74-.4-16.87,2.55-20.2,3.95-4.48,23.25-5.5,23.25-5.5s7.66,16.4,5.82,21.71c-1.48,4.29-12.23,10.42-16.46,12.7A3.46,3.46,0,0,1,381.38,209.53Z" style="fill:none;stroke:#999;stroke-linecap:round;stroke-linejoin:round"></path><path d="M340.16,104.87c0,4.8-2.18,20.43-4.86,20.43s-4.85-15.63-4.85-20.43,2.17-8.69,4.85-8.69S340.16,100.07,340.16,104.87Z" style="fill:none;stroke:#999;stroke-linecap:round;stroke-linejoin:round"></path><path d="M325.89,106.53c3.09,3.68,11.47,17,9.41,18.77s-13.76-8.85-16.84-12.53-3.92-8-1.87-9.78S322.81,102.86,325.89,106.53Z" style="fill:none;stroke:#999;stroke-linecap:round;stroke-linejoin:round"></path><path d="M316,117c4.73.84,19.74,5.69,19.27,8.33s-16.23,2.06-21,1.23-8.18-3.65-7.71-6.29S311.3,116.14,316,117Z" style="fill:none;stroke:#999;stroke-linecap:round;stroke-linejoin:round"></path><path d="M315.19,131.31c4.15-2.4,18.77-8.33,20.11-6s-11.1,12-15.26,14.41-8.61,2.47-10,.15S311,133.71,315.19,131.31Z" style="fill:none;stroke:#999;stroke-linecap:round;stroke-linejoin:round"></path><path d="M323.76,142.83c1.64-4.51,9-18.45,11.54-17.53s-.78,16.34-2.42,20.85-5,7.43-7.53,6.51S322.12,147.34,323.76,142.83Z" style="fill:none;stroke:#999;stroke-linecap:round;stroke-linejoin:round"></path><path d="M337.73,146.15c-1.64-4.51-4.94-19.93-2.43-20.85s9.91,13,11.55,17.53.93,8.91-1.59,9.83S339.37,150.66,337.73,146.15Z" style="fill:none;stroke:#999;stroke-linecap:round;stroke-linejoin:round"></path><path d="M350.57,139.71c-4.16-2.4-16.61-12.09-15.27-14.41s16,3.61,20.12,6,6.44,6.23,5.1,8.55S354.72,142.11,350.57,139.71Z" style="fill:none;stroke:#999;stroke-linecap:round;stroke-linejoin:round"></path><path d="M356.26,126.53c-4.72.83-20.49,1.41-21-1.23s14.55-7.49,19.28-8.33,8.93.63,9.4,3.27S361,125.7,356.26,126.53Z" style="fill:none;stroke:#999;stroke-linecap:round;stroke-linejoin:round"></path><path d="M352.15,112.77c-3.08,3.68-14.79,14.25-16.85,12.53s6.33-15.09,9.42-18.77S352,101.27,354,103,355.24,109.09,352.15,112.77Z" style="fill:none;stroke:#999;stroke-linecap:round;stroke-linejoin:round"></path><path d="M418.82,104.87c0,4.8-2.17,20.43-4.85,20.43s-4.85-15.63-4.85-20.43,2.17-8.69,4.85-8.69S418.82,100.07,418.82,104.87Z" style="fill:none;stroke:#999;stroke-linecap:round;stroke-linejoin:round"></path><path d="M404.56,106.53c3.08,3.68,11.46,17,9.41,18.77s-13.76-8.85-16.85-12.53-3.92-8-1.87-9.78S401.47,102.86,404.56,106.53Z" style="fill:none;stroke:#999;stroke-linecap:round;stroke-linejoin:round"></path><path d="M394.7,117c4.72.84,19.74,5.69,19.27,8.33s-16.23,2.06-21,1.23-8.18-3.65-7.71-6.29S390,116.14,394.7,117Z" style="fill:none;stroke:#999;stroke-linecap:round;stroke-linejoin:round"></path><path d="M393.85,131.31c4.16-2.4,18.78-8.33,20.12-6s-11.11,12-15.26,14.41-8.62,2.47-10,.15S389.7,133.71,393.85,131.31Z" style="fill:none;stroke:#999;stroke-linecap:round;stroke-linejoin:round"></path><path d="M402.42,142.83c1.65-4.51,9-18.45,11.55-17.53s-.78,16.34-2.43,20.85-5,7.43-7.53,6.51S400.78,147.34,402.42,142.83Z" style="fill:none;stroke:#999;stroke-linecap:round;stroke-linejoin:round"></path><path d="M416.4,146.15c-1.64-4.51-4.95-19.93-2.43-20.85s9.91,13,11.55,17.53.93,8.91-1.59,9.83S418,150.66,416.4,146.15Z" style="fill:none;stroke:#999;stroke-linecap:round;stroke-linejoin:round"></path><path d="M429.23,139.71c-4.15-2.4-16.6-12.09-15.26-14.41s16,3.61,20.12,6,6.44,6.23,5.1,8.55S433.39,142.11,429.23,139.71Z" style="fill:none;stroke:#999;stroke-linecap:round;stroke-linejoin:round"></path><path d="M434.93,126.53c-4.73.83-20.49,1.41-21-1.23s14.55-7.49,19.27-8.33,8.94.63,9.4,3.27S439.66,125.7,434.93,126.53Z" style="fill:none;stroke:#999;stroke-linecap:round;stroke-linejoin:round"></path><path d="M430.82,112.77C427.73,116.45,416,127,414,125.3s6.33-15.09,9.41-18.77,7.25-5.26,9.31-3.54S433.9,109.09,430.82,112.77Z" style="fill:none;stroke:#999;stroke-linecap:round;stroke-linejoin:round"></path><path d="M340.16,356.21c0,4.79-2.18,20.42-4.86,20.42s-4.85-15.63-4.85-20.42,2.17-8.69,4.85-8.69S340.16,351.41,340.16,356.21Z" style="fill:none;stroke:#999;stroke-linecap:round;stroke-linejoin:round"></path><path d="M325.89,357.86c3.09,3.68,11.47,17.05,9.41,18.77s-13.76-8.85-16.84-12.53-3.92-8.05-1.87-9.77S322.81,354.19,325.89,357.86Z" style="fill:none;stroke:#999;stroke-linecap:round;stroke-linejoin:round"></path><path d="M316,368.31c4.73.83,19.74,5.68,19.27,8.32s-16.23,2.07-21,1.23-8.18-3.64-7.71-6.28S311.3,367.47,316,368.31Z" style="fill:none;stroke:#999;stroke-linecap:round;stroke-linejoin:round"></path><path d="M315.19,382.64c4.15-2.4,18.77-8.33,20.11-6s-11.1,12-15.26,14.42-8.61,2.46-10,.14S311,385,315.19,382.64Z" style="fill:none;stroke:#999;stroke-linecap:round;stroke-linejoin:round"></path><path d="M323.76,394.17c1.64-4.51,9-18.45,11.54-17.54s-.78,16.35-2.42,20.86-5,7.42-7.53,6.5S322.12,398.68,323.76,394.17Z" style="fill:none;stroke:#999;stroke-linecap:round;stroke-linejoin:round"></path><path d="M337.73,397.49c-1.64-4.51-4.94-19.94-2.43-20.86s9.91,13,11.55,17.54.93,8.91-1.59,9.82S339.37,402,337.73,397.49Z" style="fill:none;stroke:#999;stroke-linecap:round;stroke-linejoin:round"></path><path d="M350.57,391.05c-4.16-2.4-16.61-12.1-15.27-14.42s16,3.61,20.12,6,6.44,6.23,5.1,8.55S354.72,393.45,350.57,391.05Z" style="fill:none;stroke:#999;stroke-linecap:round;stroke-linejoin:round"></path><path d="M356.26,377.86c-4.72.84-20.49,1.41-21-1.23s14.55-7.49,19.28-8.32,8.93.63,9.4,3.27S361,377,356.26,377.86Z" style="fill:none;stroke:#999;stroke-linecap:round;stroke-linejoin:round"></path><path d="M352.15,364.1c-3.08,3.68-14.79,14.25-16.85,12.53s6.33-15.09,9.42-18.77,7.25-5.26,9.3-3.53S355.24,360.43,352.15,364.1Z" style="fill:none;stroke:#999;stroke-linecap:round;stroke-linejoin:round"></path><path d="M418.82,356.21c0,4.79-2.17,20.42-4.85,20.42s-4.85-15.63-4.85-20.42,2.17-8.69,4.85-8.69S418.82,351.41,418.82,356.21Z" style="fill:none;stroke:#999;stroke-linecap:round;stroke-linejoin:round"></path><path d="M404.56,357.86c3.08,3.68,11.46,17.05,9.41,18.77s-13.76-8.85-16.85-12.53-3.92-8.05-1.87-9.77S401.47,354.19,404.56,357.86Z" style="fill:none;stroke:#999;stroke-linecap:round;stroke-linejoin:round"></path><path d="M394.7,368.31c4.72.83,19.74,5.68,19.27,8.32s-16.23,2.07-21,1.23-8.18-3.64-7.71-6.28S390,367.47,394.7,368.31Z" style="fill:none;stroke:#999;stroke-linecap:round;stroke-linejoin:round"></path><path d="M393.85,382.64c4.16-2.4,18.78-8.33,20.12-6s-11.11,12-15.26,14.42-8.62,2.46-10,.14S389.7,385,393.85,382.64Z" style="fill:none;stroke:#999;stroke-linecap:round;stroke-linejoin:round"></path><path d="M402.42,394.17c1.65-4.51,9-18.45,11.55-17.54s-.78,16.35-2.43,20.86-5,7.42-7.53,6.5S400.78,398.68,402.42,394.17Z" style="fill:none;stroke:#999;stroke-linecap:round;stroke-linejoin:round"></path><path d="M416.4,397.49c-1.64-4.51-4.95-19.94-2.43-20.86s9.91,13,11.55,17.54.93,8.91-1.59,9.82S418,402,416.4,397.49Z" style="fill:none;stroke:#999;stroke-linecap:round;stroke-linejoin:round"></path><path d="M429.23,391.05c-4.15-2.4-16.6-12.1-15.26-14.42s16,3.61,20.12,6,6.44,6.23,5.1,8.55S433.39,393.45,429.23,391.05Z" style="fill:none;stroke:#999;stroke-linecap:round;stroke-linejoin:round"></path><path d="M434.93,377.86c-4.73.84-20.49,1.41-21-1.23s14.55-7.49,19.27-8.32,8.94.63,9.4,3.27S439.66,377,434.93,377.86Z" style="fill:none;stroke:#999;stroke-linecap:round;stroke-linejoin:round"></path><path d="M430.82,364.1c-3.09,3.68-14.8,14.25-16.85,12.53s6.33-15.09,9.41-18.77,7.25-5.26,9.31-3.53S433.9,360.43,430.82,364.1Z" style="fill:none;stroke:#999;stroke-linecap:round;stroke-linejoin:round"></path><line x1="490" y1="443.09" x2="15" y2="443.09" style="fill:none;stroke:#999;stroke-linecap:round;stroke-linejoin:round"></line></g><g id="freepik--Character--inject-2"><ellipse cx="251.1" cy="460.9" rx="194.96" ry="8.7" style="fill:#263238;stroke:#263238;stroke-linecap:round;stroke-linejoin:round"></ellipse><path d="M282.86,171.3s6.37,10.06,4.36,20.45-4.69,14.75-7.38,19.78.67,12.06-2.34,15.08-9.72,1.34-9.72,1.34-4,3.69-10.73,9.72S251,246.05,244,241s-15.75-16.76-15.75-16.76-2.69-18.43,17.76-36.87S282.86,171.3,282.86,171.3Z" style="fill:#bababa;stroke:#263238;stroke-miterlimit:10"></path><path d="M244.62,188.68l43-1.6a34.35,34.35,0,0,0-4.74-15.78S266.44,169,246,187.39C245.52,187.82,245.07,188.25,244.62,188.68Z" style="fill:#fff;stroke:#263238;stroke-miterlimit:10"></path><path d="M286.19,178.86a35.42,35.42,0,0,0-3.33-7.56S266.44,169,246,187.39c-.47.43-.92.86-1.37,1.29l17.05-.64C270.48,183.18,280.62,180.24,286.19,178.86Z" style="fill:#263238;stroke:#263238;stroke-linecap:round;stroke-linejoin:round"></path><path d="M273.48,209.85l-1.35,4s-5,.67-6-3" style="fill:none;stroke:#263238;stroke-miterlimit:10"></path><path d="M278.17,203.48s-2-6.37-10.73-2" style="fill:none;stroke:#263238;stroke-linecap:round;stroke-linejoin:round;stroke-width:2px"></path><path d="M217.5,284.26s7.37,64,9.38,79.44,3,22.79,3,22.79l-18.77-3,.34-106.93Z" style="fill:#263238;stroke:#263238;stroke-linecap:round;stroke-linejoin:round"></path><path d="M213.14,376.1s33.86,11.4,47.93,21.12,31.18,19.78,33.19,24.47-.34,14.08-1,18.1-2.34,2.35-1.34,2.35,30.84,10.39,30.5,15.08-3.68,7.37-39.21,8.38-97.88-7-93.19-3.35,21.79,2.34,18.44,5.7-44.25-.68-74.75-1-56.31-6.37-52.62-9.05,20.78-10.73,27.82-12.74,13.74-7,15.75-11.06,5-4.69,5-4.69-9.05-17.43-7-27.49,14.41-25.47,26.15-29.83S213.14,376.1,213.14,376.1Z" style="fill:#407BFF;stroke:#263238;stroke-linecap:round;stroke-linejoin:round"></path><path d="M142.89,440.19c6.86,4.48,16.41,9,27.35,9.32,22.12.67,84.46.67,93.52,1.68" style="fill:none;stroke:#263238;stroke-linecap:round;stroke-linejoin:round"></path><path d="M131.69,431.07a53.68,53.68,0,0,0,5.34,4.85" style="fill:none;stroke:#263238;stroke-linecap:round;stroke-linejoin:round"></path><path d="M187.14,445.32c15.09.35,40,.21,57.51-3.52,26.81-5.7,35.19-16.76,35.19-16.76" style="fill:none;stroke:#263238;stroke-linecap:round;stroke-linejoin:round"></path><path d="M173.92,444.82s2.7.16,7.17.32" style="fill:none;stroke:#263238;stroke-linecap:round;stroke-linejoin:round"></path><path d="M244.65,441.8s21.79,1.34,37.88-5.36" style="fill:none;stroke:#263238;stroke-linecap:round;stroke-linejoin:round"></path><path d="M287.49,451.2c2.81-2.48,4.09-5.17,4.09-7.05" style="fill:none;stroke:#263238;stroke-linecap:round;stroke-linejoin:round"></path><path d="M133.32,454.49a100.72,100.72,0,0,0,34.91,5.08c27.48-1,68-5,91.17-2.35,8.66,1,15.35.13,20.33-1.63" style="fill:none;stroke:#263238;stroke-linecap:round;stroke-linejoin:round"></path><path d="M120.63,449.17a61.53,61.53,0,0,0,6.41,3" style="fill:none;stroke:#263238;stroke-linecap:round;stroke-linejoin:round"></path><path d="M111.58,447.5s-16.42,3.35-9,6.7S130.35,470,180,463.25" style="fill:none;stroke:#263238;stroke-linecap:round;stroke-linejoin:round"></path><path d="M160.85,289.29s-4.36,28.16-8.38,42.57-22.79,43.91-28.82,56.31-5.37,14.41-5.37,14.41,10.06,10.06,40.23,12.41,58.32-5,58.32-5,1-47.26.33-71.73-1.34-56-1.34-56-12.4-17.09-27.15-13.41S160.85,289.29,160.85,289.29Z" style="fill:#263238;stroke:#263238;stroke-linecap:round;stroke-linejoin:round"></path><path d="M252.13,298.2a79.63,79.63,0,0,1,19.62-4.71c9.69-.78,17.55-2.35,19.12-6.81s4.19-9.69,3.41-17-4.45-7.34-6-4.46-6,11.27-11,13.89-12.31-.79-12.31-.79,7.07-2.88,7.07-8.91-4.45-1.57-6.81.79-9.95,9.43-11.26,10.22-5.24,4.71-6.29,7.07-2.62,6-2.62,6Z" style="fill:#bababa;stroke:#263238;stroke-linecap:round;stroke-miterlimit:10"></path><path d="M294,268.08s-1-.52-2.62,4.72S288,284.32,288,284.32L280.66,288" style="fill:none;stroke:#263238;stroke-linecap:round;stroke-miterlimit:10"></path><path d="M244,284.5s3-7.59,3.9-10.4,6.06-5.2,7.8-7.15,5.19-8.45,6.49-9.31,6.07,1.51,3,6.06-4.12,6.28-4.77,8.23-.22,2.6,1.3,2.6,11.05-1.73,13.43-3.25,7.15-7.15,8.45-9.75,3.68-5.84,5-4.33a3.89,3.89,0,0,1,.87,3.25,6.23,6.23,0,0,1,1.73,4.55c0,3-1.08,5.42-1.08,6.72s-2.6,10.39-2.82,11-6.93,5-12.56,7.37-14.3,2.16-16.46,2.81-5.64,3.69-5.64,3.69L242,286.88S243.77,283.41,244,284.5Z" style="fill:#bababa;stroke:#263238;stroke-linecap:round;stroke-miterlimit:10"></path><path d="M289.48,260.45s-2.82,7.8-5,12.35a15.28,15.28,0,0,1-5,6.28" style="fill:none;stroke:#263238;stroke-linecap:round;stroke-linejoin:round"></path><path d="M290.13,271.72s-3.9,6.93-5.42,8.44a13,13,0,0,1-3.46,2.39" style="fill:none;stroke:#263238;stroke-linecap:round;stroke-linejoin:round"></path><path d="M171.58,293S183.31,334.21,189,344.6s7,14.07,9.38,13.74,54-55.31,54.64-56.65a59.5,59.5,0,0,1,4.36-5.7L243,282.59S228.9,297.67,223.87,302s-10.73,9.05-10.73,9.05-8.38-25.14-9.38-26.82-7.38-10.39-12.74-10.39" style="fill:#263238;stroke:#263238;stroke-linecap:round;stroke-linejoin:round"></path><path d="M174.63,299.71s17.36,55.61,24,54.94,23.07-18,23.07-18" style="fill:none;stroke:#969696;stroke-linecap:round;stroke-linejoin:round"></path><line x1="209.8" y1="314.41" x2="203.76" y2="284.26" style="fill:none;stroke:#969696;stroke-linecap:round;stroke-linejoin:round"></line><path d="M225.88,239s9.38-2,9.72-4.69-.67-8.72,5-16.42,9.72-16.09,15.08-23.13S290.57,171,290.57,171s-16.42-17.77-30.17-23.46-36.53-5.7-40.22-5.7-12.74.67-18.1,10.05-14.41,41.9-16.09,52.29-16.76,34.19-23.13,50.62-12.73,41.56-12.73,41.56,15.08-2.35,26.81-10.73,13.41-12.4,23.13-7.37,25.81,17.09,25.81,17.09,3-7.71,2.68-20.11-4.69-11.39-1.34-15.75,5.7-7,5-11.06S225.88,239,225.88,239Z" style="fill:#407BFF;stroke:#263238;stroke-linecap:round;stroke-linejoin:round"></path><path d="M233.79,163.29a32.79,32.79,0,0,1,1.47-4" style="fill:none;stroke:#263238;stroke-linecap:round;stroke-linejoin:round"></path><path d="M232.25,232.31s-4-37.52-.19-61.17" style="fill:none;stroke:#263238;stroke-linecap:round;stroke-linejoin:round"></path><path d="M220.76,249.36c.54,1.29,1.13,2.54,1.77,3.73" style="fill:none;stroke:#263238;stroke-linecap:round;stroke-linejoin:round"></path><path d="M222.19,160.58s-12.77,50.54-3.57,82.63" style="fill:none;stroke:#263238;stroke-linecap:round;stroke-linejoin:round"></path><path d="M223.87,238s-4.69-12.07-4.36-31.51" style="fill:none;stroke:#263238;stroke-linecap:round;stroke-linejoin:round"></path><path d="M197.5,243.18a58.5,58.5,0,0,0,.89,6.56" style="fill:none;stroke:#263238;stroke-linecap:round;stroke-linejoin:round"></path><path d="M211.77,179.05c-5.79,13.34-14.2,36.23-14.49,57.19" style="fill:none;stroke:#263238;stroke-linecap:round;stroke-linejoin:round"></path><path d="M217.16,167.62s-1,1.82-2.47,5" style="fill:none;stroke:#263238;stroke-linecap:round;stroke-linejoin:round"></path><path d="M162,274.38c1.24-3.65,2.93-8.32,5.21-14.25,8.38-21.79,21.45-32.51,21.45-32.51s3.69-2.69,4-9.05,1.67-23.13,6-33.19" style="fill:none;stroke:#263238;stroke-linecap:round;stroke-linejoin:round"></path><path d="M158.51,286.61a30,30,0,0,1,1.12-4.76" style="fill:none;stroke:#263238;stroke-linecap:round;stroke-linejoin:round"></path></g><g id="freepik--Book--inject-2"><polygon points="393.55 414.56 396 391.1 346.85 391.1 342.21 414.56 393.55 414.56" style="fill:#263238;stroke:#263238;stroke-linecap:round;stroke-linejoin:round"></polygon><path d="M395.43,391.93H348.24s-2.94,7.82-2.94,11.73S347,413.93,347,413.93h46.54Z" style="fill:#fff;stroke:#263238;stroke-linecap:round;stroke-linejoin:round"></path><path d="M395.43,391.93s-1.22,3.17-2.69,7.82S393,413,393,413Z" style="fill:#fff;stroke:#263238;stroke-linecap:round;stroke-linejoin:round"></path><path d="M393.27,414.57l8.88,46h-16l-3.86-15.46a11.7,11.7,0,0,0-11.25-9.39c-5.37,0-9,4.2-8.17,9.39l3.86,15.46h-16l-8.87-46Z" style="fill:#263238;stroke:#263238;stroke-linecap:round;stroke-linejoin:round"></path><path d="M342.21,414.57l-8.88,46h16l3.86-15.46a11.7,11.7,0,0,1,11.25-9.39c5.37,0,9,4.2,8.17,9.39l-3.85,15.46h15.95l8.88-46Z" style="fill:#fff;stroke:#263238;stroke-linecap:round;stroke-linejoin:round"></path><path d="M392.5,409.78S392,402.2,390.78,399a9.6,9.6,0,0,0-3.91-4.65l-1.71.49,6.36,16.87Z" style="fill:#fff;stroke:#263238;stroke-linecap:round;stroke-linejoin:round"></path><polygon points="342.21 414.56 335.38 393.45 386.99 393.45 393.55 414.56 342.21 414.56" style="fill:#fff;stroke:#263238;stroke-linecap:round;stroke-linejoin:round"></polygon></g></svg>